<svg fill="currentColor" xmlns="http://www.w3.org/2000/svg" viewBox="0 0 50 50">
<title>Codepen</title>
<path d="M25 0L0 15.8854V34.1099L25 50L50 34.1146V15.8854L25 0ZM25 29.9805L17.9362 25.0837L25 20.266L32.0638 25.0837L25 29.9805ZM27.381 16.197V7.0824L43.3687 17.2433L36.2026 22.2098L27.381 16.197ZM22.619 16.197L13.7974 22.2098L6.63133 17.2433L22.619 7.0824V16.197ZM9.63542 25.0512L4.7619 28.3715V21.6704L9.63542 25.0512ZM13.7742 27.9204L22.619 34.0541V42.9176L6.65458 32.7706L13.7742 27.9204ZM27.381 34.0541L36.2258 27.9204L43.3454 32.7706L27.381 42.9176V34.0541ZM40.3646 25.0512L45.2381 21.6704V28.3715L40.3646 25.0512Z" />
  </svg>
