<svg viewBox="0 0 458 297" fill="none" xmlns="http://www.w3.org/2000/svg">
<title>John Slipper</title>
<g id="js" clip-path="url(#clip0_37_6)">
<g class="logo__dot">
<g id="Vector" filter="url(#filter0_f_37_6)">
<path d="M20.886 245.141C20.886 240.684 21.7204 236.538 23.3874 232.699C25.0562 228.861 27.3389 225.516 30.2441 222.667C33.1459 219.821 36.5742 217.562 40.529 215.892C44.4822 214.218 48.8055 213.385 53.5005 213.385C58.071 213.385 62.332 214.218 66.2869 215.892C70.2384 217.562 73.7004 219.822 76.6644 222.667C79.6284 225.518 81.9448 228.861 83.6136 232.699C85.2806 236.536 86.115 240.684 86.115 245.141C86.115 249.599 85.2806 253.779 83.6136 257.68C81.9448 261.58 79.6284 264.954 76.6644 267.8C73.7004 270.651 70.2384 272.881 66.2869 274.488C62.332 276.095 58.0694 276.903 53.5005 276.903C48.8055 276.903 44.4822 276.095 40.529 274.488C36.5742 272.881 33.1459 270.651 30.2441 267.8C27.3406 264.954 25.0562 261.582 23.3874 257.68C21.7204 253.781 20.886 249.599 20.886 245.141Z" fill="url(#paint0_linear_37_6)"/>
</g>
<path id="Vector_2" d="M20.886 245.141C20.886 240.684 21.7204 236.538 23.3874 232.699C25.0562 228.861 27.3389 225.516 30.2441 222.667C33.1459 219.821 36.5742 217.562 40.529 215.892C44.4822 214.218 48.8055 213.385 53.5005 213.385C58.071 213.385 62.332 214.218 66.2869 215.892C70.2384 217.562 73.7004 219.822 76.6644 222.667C79.6284 225.518 81.9448 228.861 83.6136 232.699C85.2806 236.536 86.115 240.684 86.115 245.141C86.115 249.599 85.2806 253.779 83.6136 257.68C81.9448 261.58 79.6284 264.954 76.6644 267.8C73.7004 270.651 70.2384 272.881 66.2869 274.488C62.332 276.095 58.0694 276.903 53.5005 276.903C48.8055 276.903 44.4822 276.095 40.529 274.488C36.5742 272.881 33.1459 270.651 30.2441 267.8C27.3406 264.954 25.0562 261.582 23.3874 257.68C21.7204 253.781 20.886 249.599 20.886 245.141Z" fill="url(#paint1_linear_37_6)"/>
</g>
<g class="logo__js">
<path id="Vector_3" d="M252.889 175.239C252.889 190.347 251.003 204.092 247.236 216.47C243.465 228.854 237.784 239.473 230.187 248.323C222.59 257.174 213.046 264.046 201.558 268.938C190.068 273.825 176.542 276.273 160.976 276.273C153.935 276.273 146.986 275.901 140.129 275.161C133.272 274.415 126.138 273.181 118.726 271.445L122.062 234.855C122.308 231.636 123.574 229.038 125.862 227.054C128.147 225.074 131.328 224.083 135.405 224.083C137.505 224.083 140.099 224.427 143.187 225.105C146.274 225.787 149.98 226.131 154.307 226.131C160.357 226.131 165.64 225.293 170.151 223.619C174.658 221.95 178.397 219.161 181.361 215.262C184.325 211.362 186.551 206.255 188.033 199.941C189.515 193.625 190.257 185.824 190.257 176.537V2.69531H252.89V175.239H252.889Z" fill="#7D8291"/>
<path id="Vector_4" d="M438.564 58.6713C436.711 61.6421 434.764 63.8744 432.727 65.3597C430.688 66.8451 428.062 67.5853 424.851 67.5853C422.008 67.5853 418.952 66.69 415.678 64.8944C412.405 63.0988 408.697 61.0857 404.56 58.8601C400.42 56.6295 395.694 54.6164 390.384 52.8208C385.07 51.0303 379.018 50.1299 372.223 50.1299C360.485 50.1299 351.748 52.6371 346.003 57.6496C340.258 62.6638 337.387 69.4433 337.387 77.9897C337.387 83.4389 339.116 87.954 342.575 91.5453C346.032 95.1415 350.572 98.2337 356.194 100.832C361.814 103.43 368.24 105.816 375.467 107.984C382.693 110.152 390.073 112.567 397.611 115.224C405.144 117.891 412.529 121.017 419.756 124.608C426.982 128.199 433.405 132.777 439.027 138.352C444.647 143.923 449.188 150.703 452.648 158.687C456.105 166.672 457.836 176.303 457.836 187.569C457.836 200.074 455.672 211.775 451.349 222.668C447.023 233.567 440.755 243.071 432.54 251.182C424.323 259.294 414.194 265.667 402.15 270.312C390.104 274.953 376.421 277.275 361.104 277.275C352.703 277.275 344.149 276.409 335.44 274.677C326.732 272.944 318.299 270.496 310.145 267.341C301.992 264.182 294.329 260.44 287.166 256.104C280 251.767 273.761 246.939 268.45 241.614L286.981 212.269C288.339 210.044 290.253 208.248 292.726 206.882C295.196 205.522 297.85 204.841 300.695 204.841C304.401 204.841 308.135 206.021 311.905 208.368C315.673 210.725 319.934 213.323 324.691 216.169C329.445 219.02 334.912 221.618 341.091 223.97C347.266 226.322 354.555 227.497 362.958 227.497C374.321 227.497 383.156 224.99 389.456 219.978C395.757 214.963 398.907 207.009 398.907 196.11C398.907 189.794 397.176 184.661 393.719 180.697C390.258 176.733 385.72 173.452 380.1 170.854C374.478 168.256 368.084 165.961 360.919 163.982C353.753 162.002 346.402 159.8 338.867 157.386C331.329 154.972 323.978 151.999 316.815 148.472C309.649 144.945 303.257 140.303 297.636 134.544C292.014 128.784 287.473 121.609 284.016 112.998C280.555 104.394 278.828 93.7759 278.828 81.1459C278.828 70.9927 280.866 61.0874 284.942 51.4282C289.018 41.7741 295.01 33.1686 302.917 25.6153C310.821 18.0602 320.521 12.026 332.01 7.50577C343.502 2.98387 356.658 0.724609 371.482 0.724609C379.758 0.724609 387.819 1.37373 395.665 2.67533C403.509 3.97694 410.953 5.89899 417.994 8.43476C425.036 10.9705 431.615 14.0054 437.73 17.5325C443.845 21.0597 449.31 25.0572 454.13 29.515L438.564 58.6713Z" fill="#7D8291"/>
</g>
</g>
<defs>
<filter id="filter0_f_37_6" x="0.885986" y="193.385" width="105.229" height="103.517" filterUnits="userSpaceOnUse" color-interpolation-filters="sRGB">
<feFlood flood-opacity="0" result="BackgroundImageFix"/>
<feBlend mode="normal" in="SourceGraphic" in2="BackgroundImageFix" result="shape"/>
<feGaussianBlur stdDeviation="10" result="effect1_foregroundBlur_37_6"/>
</filter>
<linearGradient id="paint0_linear_37_6" x1="75" y1="222" x2="30" y2="268" gradientUnits="userSpaceOnUse">
<stop stop-color="#FFD800"/>
<stop offset="0.296875" stop-color="#FF5520"/>
<stop offset="0.671875" stop-color="#750CF2"/>
<stop offset="1" stop-color="#0CBCF2"/>
</linearGradient>
<linearGradient id="paint1_linear_37_6" x1="75" y1="222" x2="30" y2="268" gradientUnits="userSpaceOnUse">
<stop stop-color="#FFD800"/>
<stop offset="0.296875" stop-color="#FF5520"/>
<stop offset="0.671875" stop-color="#750CF2"/>
<stop offset="1" stop-color="#0CBCF2"/>
</linearGradient>
<clipPath id="clip0_37_6">
<rect width="458" height="297" fill="white"/>
</clipPath>
</defs>
</svg>
