<?xml version="1.0" encoding="utf-8"?>
<!-- Generator: Adobe Illustrator 17.0.0, SVG Export Plug-In . SVG Version: 6.00 Build 0)  -->
<!DOCTYPE svg PUBLIC "-//W3C//DTD SVG 1.1//EN" "http://www.w3.org/Graphics/SVG/1.1/DTD/svg11.dtd">
<svg version="1.1" xmlns="http://www.w3.org/2000/svg" xmlns:xlink="http://www.w3.org/1999/xlink" x="0px" y="0px" width="60px"
	 height="60px" viewBox="0 0 60 60" enable-background="new 0 0 60 60" xml:space="preserve">
<g id="Post">
</g>
<g id="Home">
	<g id="Background">
	</g>
	<g id="Content">
	</g>
	<g id="Symbols">
		<g>
			<ellipse fill="#FFE703" cx="30" cy="29.966" rx="11.01" ry="11.049"/>
			<path fill="#FFE703" d="M15.427,26.878C16.845,20.107,22.83,15.285,30,15.285c2.506,0,4.865,0.911,6.938,1.984h20.077
				C52.159,7.613,41.888,0,30,0C20.376,0,11.818,4.422,6.328,11.495L15.427,26.878z"/>
			<path fill="#FFE703" d="M34.495,44.216c-1.418,0.45-2.928,0.694-4.495,0.694c-8.031,0-14.573-6.379-14.878-14.363L4.975,13.246
				C1.834,18.007,0,23.713,0,29.851C0,45,11.145,57.532,25.652,59.647L34.495,44.216z"/>
			<path fill="#FFE703" d="M39.972,19.415c3.021,3.218,4.92,6.42,4.92,10.825c0,5.377-2.832,9.953-7.079,12.585l-9.857,17.132
				C28.633,60.002,29.312,60,30,60c16.569,0,30-13.227,30-29.858c0-3.877-0.738-7.508-2.067-10.727H39.972z"/>
		</g>
	</g>
	<g id="Logo">
	</g>
</g>
</svg>
