<?xml version="1.0" encoding="utf-8"?>
<!-- Generator: Adobe Illustrator 17.0.0, SVG Export Plug-In . SVG Version: 6.00 Build 0)  -->
<!DOCTYPE svg PUBLIC "-//W3C//DTD SVG 1.1//EN" "http://www.w3.org/Graphics/SVG/1.1/DTD/svg11.dtd">
<svg version="1.1" xmlns="http://www.w3.org/2000/svg" xmlns:xlink="http://www.w3.org/1999/xlink" x="0px" y="0px" width="60px"
	 height="60px" viewBox="0 0 60 60" enable-background="new 0 0 60 60" xml:space="preserve">
<g id="Post">
</g>
<g id="Home">
	<g id="Background">
	</g>
	<g id="Content">
	</g>
	<g id="Symbols">
		<g>
			<g>
				<path fill="#A2206C" d="M58.125,53.23c-0.559,0.76-1.571,1.017-2.483,1.261c-1.187,0.317-2.409,0.526-3.627,0.712
					c-2.387,0.366-4.805,0.59-7.216,0.779c-4.995,0.39-10.063,0.538-15.075,0.507c-4.927-0.03-9.856-0.132-14.764-0.551
					c-2.524-0.216-5.035-0.425-7.535-0.821c-1.219-0.193-2.433-0.427-3.61-0.779c-0.484-0.145-0.978-0.289-1.383-0.581
					c-0.278-0.2-0.441-0.627-0.849-0.526c0.374,0.862,0.722,1.869,1.284,2.643c0.626,0.863,1.705,1.543,2.748,1.797
					c2.622,0.64,5.391,1.197,8.088,1.434C17.322,59.573,23.454,60,24.969,60c1.436,0,2.872,0,4.308,0
					c5.407,0,10.599-0.33,15.999-0.812c2.859-0.255,5.739-0.678,8.542-1.268c1.066-0.224,2.23-0.905,3.007-1.661
					c0.788-0.767,1.15-2.044,1.589-2.998C58.322,53.261,58.214,53.212,58.125,53.23z"/>
				<g>
					<path fill="#A2206C" d="M52.216,25.509c0.024,0.021,0.05,0.044,0.078,0.067C52.269,25.555,52.243,25.532,52.216,25.509z"/>
					<path fill="#A2206C" d="M52.051,25.366c0.014,0.012,0.029,0.025,0.045,0.039C52.081,25.392,52.066,25.379,52.051,25.366z"/>
					<path fill="#A2206C" d="M59.92,29.985c-0.143-5.58-0.478-11.16-1.222-16.703c-0.329-2.449-0.664-4.922-1.436-7.294
						c-0.105,0.072-0.164,0.167-0.178,0.286c0.051-0.374,0.152-0.439,0.035-0.875c-0.148-0.556-0.345-1.099-0.593-1.624
						c-0.506-1.071-1.269-1.635-2.491-1.962c-2.722-0.728-5.608-0.985-8.423-1.208c-6.051-0.48-12.131-0.698-18.204-0.568
						C21.488,0.164,15.51,0.261,9.652,1.118C7.296,1.462,4.394,1.603,3.417,3.922c-0.98,2.327-1.4,4.872-1.775,7.329
						c0,0-1.35,12.875-1.398,13.922c-0.064,1.404-0.122,2.808-0.157,4.213c-0.134,5.369-0.22,10.818,0.563,16.151
						c0.3,2.046,0.354,4.856,2.819,5.709c2.49,0.862,5.324,1.133,7.953,1.386c6.051,0.584,12.157,0.862,18.241,0.86
						c6.077-0.002,12.169-0.224,18.215-0.793c2.547-0.24,5.174-0.408,7.63-1.111c1.018-0.291,2.14-0.626,2.705-1.514
						c0.634-0.997,0.812-2.294,0.996-3.412C60.112,41.171,60.062,35.521,59.92,29.985z M25.495,17.304
						c-0.328,0.585-1.089,1.054-1.6,1.504c-0.517,0.456-1.032,0.913-1.548,1.37c-1.021,0.906-2.039,1.816-3.071,2.711
						c-1.068,0.927-2.151,1.84-3.173,2.809c-0.13,0.123-0.919,0.683-0.823,0.8c0.333,0.407,0.801,0.755,1.185,1.122
						c-0.002-0.002-0.002-0.002-0.003-0.003c0.01,0.009,0.022,0.021,0.038,0.036c-0.012-0.011-0.022-0.021-0.034-0.033
						c2.165,2.065,4.327,4.131,6.493,6.195c0.583,0.556,1.166,1.111,1.75,1.666c0.366,0.348,0.725,0.692,0.731,1.206
						c0.009,0.847-1.622,1.947-2.259,2.481c-0.949,0.795-1.654,1.764-2.844,0.606c-0.984-0.958-1.968-1.917-2.951-2.876
						c-2.031-1.983-4.056-3.972-6.081-5.96c-1.02-1.001-2.054-1.991-3.073-2.993c-0.59-0.58-1.734-1.424-0.792-2.239
						c2.211-1.914,4.419-3.829,6.627-5.745c2.183-1.894,4.37-3.785,6.544-5.688c0.499-0.437,0.948-0.934,1.716-0.72
						c0.563,0.157,1.059,0.716,1.472,1.076C24.514,15.253,26.079,16.263,25.495,17.304z M17.583,28.686
						c-0.028-0.026-0.064-0.061-0.112-0.107c-0.039-0.037-0.083-0.079-0.13-0.124c0.05,0.047,0.094,0.09,0.13,0.124
						C17.516,28.622,17.554,28.658,17.583,28.686z M17.314,28.429c-0.079-0.076-0.166-0.159-0.254-0.242
						C17.158,28.281,17.242,28.361,17.314,28.429z M16.726,27.868c-0.056-0.053-0.117-0.112-0.179-0.171
						C16.595,27.744,16.656,27.802,16.726,27.868z M51.493,28.244c-0.84,0.86-1.719,1.679-2.586,2.516
						c-1.964,1.894-3.876,3.834-5.836,5.732c-1.033,1-2.075,1.991-3.097,3c-0.46,0.454-0.863,0.993-1.638,0.85
						c-0.57-0.105-1.104-0.711-1.51-1.065c-0.661-0.577-2.303-1.75-2.272-2.66c0.035-1.052,1.585-2.016,2.313-2.714
						c2.053-1.968,4.113-3.929,6.175-5.89c0.478-0.455,1.274-0.977,1.591-1.536c0.112-0.198-0.883-0.942-1.053-1.09
						c-1.025-0.891-2.034-1.798-3.05-2.698c-1.116-0.988-2.233-1.976-3.354-2.96c-0.515-0.452-1.026-0.909-1.542-1.361
						c-0.42-0.368-1.018-0.72-1.26-1.22c-0.503-1.04,1.5-2.205,2.18-2.835c0.408-0.379,0.783-0.857,1.433-0.799
						c0.624,0.056,1.008,0.538,1.439,0.908c4.361,3.733,8.665,7.522,13.007,11.274c0.005,0.004,0.009,0.008,0.013,0.011
						c0.047,0.04,0.039,0.034,0,0c-0.004-0.004-0.007-0.006-0.012-0.01C53.566,26.675,52.196,27.525,51.493,28.244z"/>
					<path fill="#A2206C" d="M51.91,25.244c0.02,0.017,0.048,0.041,0.084,0.073C51.961,25.288,51.932,25.263,51.91,25.244z"/>
					<path fill="#A2206C" d="M52.433,25.697L52.433,25.697c-0.033-0.028-0.078-0.067-0.13-0.112
						C52.344,25.619,52.387,25.656,52.433,25.697z"/>
				</g>
			</g>
		</g>
	</g>
	<g id="Logo">
	</g>
</g>
</svg>
