<?xml version="1.0" encoding="utf-8"?>
<!-- Generator: Adobe Illustrator 17.0.0, SVG Export Plug-In . SVG Version: 6.00 Build 0)  -->
<!DOCTYPE svg PUBLIC "-//W3C//DTD SVG 1.1//EN" "http://www.w3.org/Graphics/SVG/1.1/DTD/svg11.dtd">
<svg version="1.1" xmlns="http://www.w3.org/2000/svg" xmlns:xlink="http://www.w3.org/1999/xlink" x="0px" y="0px" width="60px"
	 height="60px" viewBox="0 0 60 60" enable-background="new 0 0 60 60" xml:space="preserve">
<g id="Post">
</g>
<g id="Home">
	<g id="Background">
	</g>
	<g id="Content">
	</g>
	<g id="Symbols">
		<g>
			<g>
				<g>
					<path fill="#FF9419" d="M59.58,42.673c-0.001-0.011-0.002-0.021-0.002-0.03C59.579,42.652,59.579,42.662,59.58,42.673z"/>
					<path fill="#FF9419" d="M59.578,42.643c-0.002-0.021-0.003-0.04-0.004-0.057C59.575,42.602,59.576,42.62,59.578,42.643z"/>
					<path fill="#FF9419" d="M59.57,42.535C59.569,42.522,59.569,42.521,59.57,42.535L59.57,42.535z"/>
					<path fill="#FF9419" d="M59.574,42.586c-0.002-0.024-0.003-0.041-0.004-0.051C59.571,42.545,59.572,42.563,59.574,42.586z"/>
					<path fill="#FF9419" d="M59.649,43.601C59.675,43.939,59.687,44.107,59.649,43.601c-0.515-6.887-1.194-13.763-1.791-20.642
						c-0.279-3.217-0.559-6.433-0.831-9.65c-0.144-1.711-0.282-3.424-0.419-5.136c-0.118-1.469,0.018-4.609-0.625-5.953
						C54.985,0.133,49.796,0,49.796,0H10.16c0,0-5.392,0.075-6.448,2.818c-0.562,2.443-0.729,6.455-0.951,9.19
						c-0.287,3.534-0.606,7.265-0.915,10.796C1.25,29.633,0.679,36.566,0.082,43.395c-0.652,7.449,3.714,7.499,10.31,7.49
						c9.616-0.012,19.232,0.032,28.848,0.033c4.973,0.001,9.946,0.013,14.919,0.01c1.668-0.001,3.403,0.059,4.718-1.268
						C60.516,48.005,59.813,45.792,59.649,43.601z M41.586,30.492c0.014,2.506-2.22,5.548-3.782,6.714
						c-1.563,1.166-3.535,1.723-3.535,1.723c-2.77,0.752-5.549,0.535-8.346,0.104c-1.725-0.266-2.884-0.501-4.486-1.198
						c-0.755-0.329-1.663-0.928-2.134-1.366c-0.47-0.437-0.837-1.205-0.912-1.822c-0.077-0.627,0.038-1.158,0.488-1.724
						c0.752-0.707,1.328-1.117,2.38-1.173c0.834-0.044,1.625,0.159,2.413,0.398c1.663,0.505,3.272,1.233,5.002,1.462
						c1.418,0.188,2.814,0.121,4.093-0.651c0.493-0.297,1.018-0.906,1.226-1.369c0.208-0.463,0.35-1.087,0.424-1.698
						c0.053-1.496-1.028-2.359-2.996-3.021c-1.968-0.662-3.992-1.196-4.865-1.431c-0.873-0.235-4.591-1.507-5.975-4.274
						c-0.485-0.97-0.439-1.953-0.368-2.689c0.071-0.736,0.408-2.224,1.282-3.547c1.611-2.438,6.707-3.838,10.972-3.359
						c1.488,0.167,2.961,0.448,4.37,1.052c0.79,0.339,1.888,0.904,2.131,1.406c0.243,0.503,0.236,0.791,0.236,0.791
						c0.147,0.943-0.417,1.437-1.024,1.884c-0.247,0.182-0.705,0.401-1.213,0.444c-0.615,0.052-1.858-0.123-2.967-0.512
						c-1.33-0.467-2.693-0.806-4.123-0.715c-1.915,0.122-3.119,1.087-2.993,2.944c0.174,0.815,0.951,1.091,1.251,1.292
						c0.3,0.201,0.791,0.442,1.81,0.749c0.924,0.278,1.854,0.534,2.779,0.811c2.882,0.862,6.51,2.316,7.82,4.356
						C41.554,27.717,41.6,28.523,41.586,30.492z"/>
					<path fill="#FF9419" d="M59.512,42.673c0.012,0.156,0.069,0.448,0.069,0.928v0.001C59.582,43.31,59.529,42.893,59.512,42.673z"
						/>
				</g>
				<path fill="#FF9419" d="M60,51.09c-0.021,1.288-0.289,4.915-0.386,5.443c-0.044,0.24-0.048,1.886-1.567,2.791
					c-1.101,0.495-1.589,0.669-2.491,0.67c-13.255,0.005-26.51,0.002-39.765,0.001c-3.847,0-7.695,0.013-11.542-0.004
					c-0.956-0.004-1.829-0.342-2.551-1.062c-0.592-0.522-1.007-1.159-1.092-2.009L0,51.087c0,0,1.129,1.406,1.894,1.758
					c0.765,0.353,2.826,0.549,3.262,0.549c0.428,0,49.117,0.116,50.601-0.079C58.83,53.18,60,51.09,60,51.09z"/>
			</g>
		</g>
	</g>
	<g id="Logo">
	</g>
</g>
</svg>
