<?xml version="1.0" encoding="utf-8"?>
<!-- Generator: Adobe Illustrator 17.0.0, SVG Export Plug-In . SVG Version: 6.00 Build 0)  -->
<!DOCTYPE svg PUBLIC "-//W3C//DTD SVG 1.1//EN" "http://www.w3.org/Graphics/SVG/1.1/DTD/svg11.dtd">
<svg version="1.1" id="Layer_1" xmlns="http://www.w3.org/2000/svg" xmlns:xlink="http://www.w3.org/1999/xlink" x="0px" y="0px"
	 width="259.749px" height="164.026px" viewBox="0 0 259.749 164.026" enable-background="new 0 0 259.749 164.026"
	 xml:space="preserve">
<g>
	<path fill="#333333" d="M0,144.967c0-2.644,0.496-5.103,1.487-7.38c0.992-2.276,2.349-4.26,4.076-5.95
		c1.725-1.688,3.763-3.028,6.114-4.018c2.35-0.993,4.92-1.487,7.711-1.487c2.717,0,5.25,0.494,7.601,1.487
		c2.349,0.99,4.407,2.331,6.169,4.018c1.762,1.691,3.139,3.674,4.131,5.95c0.991,2.276,1.487,4.736,1.487,7.38
		s-0.496,5.123-1.487,7.437c-0.992,2.313-2.369,4.314-4.131,6.002c-1.762,1.691-3.82,3.014-6.169,3.967
		c-2.351,0.953-4.885,1.432-7.601,1.432c-2.791,0-5.361-0.479-7.711-1.432c-2.351-0.953-4.389-2.276-6.114-3.967
		c-1.726-1.688-3.084-3.688-4.076-6.002C0.496,150.091,0,147.611,0,144.967z"/>
	<path fill="#333333" d="M137.916,104.1c0,8.961-1.121,17.113-3.36,24.455c-2.242,7.345-5.619,13.643-10.135,18.892
		c-4.516,5.25-10.19,9.326-17.019,12.227c-6.83,2.899-14.871,4.351-24.124,4.351c-4.186,0-8.317-0.221-12.393-0.66
		c-4.076-0.442-8.317-1.174-12.723-2.204l1.983-21.702c0.146-1.909,0.899-3.45,2.259-4.627c1.358-1.174,3.249-1.762,5.673-1.762
		c1.248,0,2.79,0.204,4.626,0.606c1.835,0.405,4.038,0.609,6.61,0.609c3.597,0,6.737-0.497,9.419-1.49
		c2.679-0.99,4.902-2.644,6.664-4.957c1.762-2.313,3.085-5.342,3.966-9.087c0.881-3.746,1.322-8.373,1.322-13.881V1.762h37.233
		V104.1z"/>
	<path fill="#333333" d="M248.293,34.369c-1.102,1.762-2.259,3.086-3.47,3.967c-1.212,0.881-2.773,1.32-4.682,1.32
		c-1.69,0-3.507-0.531-5.453-1.596c-1.946-1.065-4.15-2.259-6.609-3.579c-2.461-1.323-5.271-2.517-8.427-3.582
		c-3.159-1.062-6.757-1.596-10.796-1.596c-6.978,0-12.172,1.487-15.587,4.46c-3.415,2.974-5.122,6.995-5.122,12.064
		c0,3.232,1.028,5.91,3.084,8.04c2.055,2.133,4.754,3.967,8.096,5.508c3.341,1.541,7.161,2.956,11.457,4.242
		c4.296,1.286,8.683,2.718,13.164,4.294c4.478,1.582,8.868,3.436,13.164,5.566c4.296,2.13,8.114,4.845,11.456,8.152
		c3.341,3.304,6.04,7.325,8.097,12.061c2.055,4.736,3.084,10.448,3.084,17.13c0,7.417-1.286,14.357-3.856,20.818
		c-2.572,6.464-6.298,12.101-11.181,16.912c-4.885,4.811-10.906,8.591-18.066,11.346c-7.161,2.753-15.295,4.13-24.4,4.13
		c-4.994,0-10.079-0.514-15.256-1.541c-5.177-1.028-10.19-2.48-15.037-4.351c-4.847-1.874-9.402-4.093-13.66-6.665
		c-4.26-2.572-7.969-5.436-11.126-8.594l11.016-17.405c0.807-1.32,1.945-2.385,3.415-3.195c1.468-0.807,3.046-1.211,4.737-1.211
		c2.203,0,4.423,0.7,6.664,2.092c2.24,1.398,4.773,2.939,7.601,4.627c2.826,1.691,6.076,3.232,9.749,4.627
		c3.671,1.395,8.004,2.092,12.999,2.092c6.755,0,12.007-1.487,15.752-4.46c3.746-2.974,5.618-7.692,5.618-14.156
		c0-3.746-1.029-6.791-3.084-9.142c-2.057-2.351-4.755-4.297-8.096-5.838c-3.342-1.541-7.143-2.902-11.402-4.076
		c-4.26-1.174-8.63-2.48-13.109-3.912c-4.481-1.432-8.851-3.195-13.109-5.287c-4.26-2.092-8.06-4.845-11.401-8.261
		c-3.342-3.416-6.042-7.672-8.097-12.779c-2.057-5.103-3.084-11.401-3.084-18.892c0-6.022,1.212-11.897,3.635-17.626
		c2.423-5.726,5.985-10.83,10.685-15.31c4.699-4.481,10.465-8.06,17.295-10.741C191.782,1.34,199.603,0,208.415,0
		c4.92,0,9.712,0.385,14.376,1.157c4.663,0.772,9.088,1.912,13.274,3.416c4.186,1.504,8.097,3.304,11.732,5.396
		s6.884,4.463,9.749,7.107L248.293,34.369z"/>
</g>
<g>
</g>
<g>
</g>
<g>
</g>
<g>
</g>
<g>
</g>
<g>
</g>
<g>
</g>
<g>
</g>
<g>
</g>
<g>
</g>
<g>
</g>
<g>
</g>
<g>
</g>
<g>
</g>
<g>
</g>
</svg>
